<?xml version="1.0" encoding="UTF-8" standalone="no"?>
<!-- Created with Inkscape (http://www.inkscape.org/) -->

<svg
   xmlns:dc="http://purl.org/dc/elements/1.1/"
   xmlns:cc="http://creativecommons.org/ns#"
   xmlns:rdf="http://www.w3.org/1999/02/22-rdf-syntax-ns#"
   xmlns:svg="http://www.w3.org/2000/svg"
   xmlns="http://www.w3.org/2000/svg"
   xmlns:sodipodi="http://sodipodi.sourceforge.net/DTD/sodipodi-0.dtd"
   xmlns:inkscape="http://www.inkscape.org/namespaces/inkscape"
   width="78.51812mm"
   height="22.117105mm"
   viewBox="0 0 78.51812 22.117107"
   version="1.1"
   id="svg434"
   inkscape:version="0.92.5 (2060ec1f9f, 2020-04-08)"
   sodipodi:docname="casa-logo-unicolor.svg">
  <defs
     id="defs428" />
  <sodipodi:namedview
     id="base"
     pagecolor="#ffffff"
     bordercolor="#666666"
     borderopacity="1.0"
     inkscape:pageopacity="0.0"
     inkscape:pageshadow="2"
     inkscape:zoom="1.979899"
     inkscape:cx="81.431523"
     inkscape:cy="-81.634372"
     inkscape:document-units="mm"
     inkscape:current-layer="layer1"
     showgrid="false"
     fit-margin-top="5"
     fit-margin-left="5"
     fit-margin-right="5"
     fit-margin-bottom="5"
     inkscape:window-width="2488"
     inkscape:window-height="1376"
     inkscape:window-x="1272"
     inkscape:window-y="261"
     inkscape:window-maximized="1" />
  <metadata
     id="metadata431">
    <rdf:RDF>
      <cc:Work
         rdf:about="">
        <dc:format>image/svg+xml</dc:format>
        <dc:type
           rdf:resource="http://purl.org/dc/dcmitype/StillImage" />
        <dc:title></dc:title>
      </cc:Work>
    </rdf:RDF>
  </metadata>
  <g
     inkscape:label="Calque 1"
     inkscape:groupmode="layer"
     id="layer1"
     transform="translate(2.8475776,2.141936)">
    <g
       transform="matrix(0.2603683,0,0,0.2603683,-4.0256643,-56.142226)"
       id="layer1-3"
       inkscape:label="Calque 1"
       inkscape:export-xdpi="300"
       inkscape:export-ydpi="300">
      <path
         style="fill:#ffffff;stroke-width:0.05125058"
         d="m 26.906827,273.0597 c -0.12685,-0.0403 -0.33577,-0.0735 -0.46428,-0.074 -0.1285,-4.1e-4 -0.27841,-0.0347 -0.33313,-0.076 -0.0547,-0.0413 -0.15849,-0.076 -0.23062,-0.0769 -0.0721,-6.8e-4 -0.17592,-0.0355 -0.23063,-0.0769 -0.0547,-0.0413 -0.13516,-0.076 -0.17876,-0.0769 -0.097,-0.002 -0.70296,-0.39522 -0.9205,-0.59735 -0.25411,-0.23611 -0.49386,-0.59778 -0.53238,-0.80308 -0.0196,-0.10448 -0.0544,-0.18996 -0.0774,-0.18996 -0.023,0 -0.0559,-0.11932 -0.0732,-0.26514 -0.0173,-0.14583 -0.0551,-0.28882 -0.084,-0.31776 -0.0653,-0.0653 -0.0742,-26.1505 -0.009,-26.19082 0.024,-0.0148 0.0598,-0.29783 0.0796,-0.62889 0.0198,-0.33107 0.0586,-0.6292 0.0863,-0.66252 0.0277,-0.0333 0.0644,-0.18411 0.0817,-0.33508 0.0173,-0.15097 0.0626,-0.31998 0.10072,-0.37559 0.0381,-0.0556 0.0693,-0.14429 0.0693,-0.19709 0,-0.0846 0.0696,-0.24719 0.21241,-0.4962 0.0242,-0.0423 0.0657,-0.12652 0.0921,-0.18721 0.0264,-0.0607 0.0725,-0.12547 0.10238,-0.14397 0.0299,-0.0185 0.0544,-0.0784 0.0544,-0.1331 0,-0.0547 0.0346,-0.0995 0.0769,-0.0995 0.0423,0 0.0769,-0.0346 0.0769,-0.0769 0,-0.0423 0.0238,-0.0769 0.053,-0.0769 0.0291,0 0.12061,-0.0692 0.20327,-0.15375 0.0827,-0.0846 0.19793,-0.15375 0.25614,-0.15375 0.0582,0 0.11911,-0.0346 0.13533,-0.0769 0.0162,-0.0423 0.0854,-0.0769 0.15376,-0.0769 0.0683,0 0.13752,-0.0346 0.15375,-0.0769 0.0162,-0.0423 0.0582,-0.0769 0.0932,-0.0769 0.035,0 0.15922,-0.0692 0.27595,-0.15375 0.11674,-0.0846 0.24568,-0.15375 0.28654,-0.15375 0.0409,0 0.0872,-0.0208 0.10291,-0.0463 0.0157,-0.0255 0.31774,-0.19045 0.67113,-0.36664 0.35338,-0.17619 0.65458,-0.33986 0.66932,-0.36371 0.0147,-0.0239 0.0688,-0.0434 0.12001,-0.0434 0.0513,0 0.12191,-0.0346 0.157,-0.0769 0.0351,-0.0423 0.10545,-0.0769 0.15636,-0.0769 0.0509,0 0.12716,-0.0346 0.16945,-0.0769 0.0423,-0.0423 0.1235,-0.0769 0.18049,-0.0769 0.057,0 0.12205,-0.0288 0.1446,-0.0641 0.0392,-0.0613 0.77868,-0.44841 0.85652,-0.44841 0.0206,0 0.072,-0.0346 0.11429,-0.0769 0.0423,-0.0423 0.11889,-0.0769 0.17024,-0.0769 0.0513,0 0.10663,-0.0346 0.12285,-0.0769 0.0162,-0.0423 0.0854,-0.0769 0.15376,-0.0769 0.0683,0 0.13752,-0.0346 0.15375,-0.0769 0.0162,-0.0423 0.0886,-0.0769 0.16084,-0.0769 0.0722,0 0.14462,-0.0346 0.16084,-0.0769 0.0162,-0.0423 0.0715,-0.0769 0.12286,-0.0769 0.0514,0 0.12795,-0.0346 0.17023,-0.0769 0.0423,-0.0423 0.1103,-0.0769 0.15114,-0.0769 0.0408,0 0.10297,-0.0346 0.13806,-0.0769 0.0351,-0.0423 0.10428,-0.0769 0.15376,-0.0769 0.0495,0 0.11866,-0.0346 0.15375,-0.0769 0.0351,-0.0423 0.10545,-0.0769 0.15636,-0.0769 0.0509,0 0.12327,-0.0307 0.1608,-0.0682 0.0375,-0.0375 0.13143,-0.0841 0.20866,-0.10348 0.0772,-0.0194 0.14043,-0.0578 0.14043,-0.0855 0,-0.0276 0.0288,-0.0507 0.0641,-0.0512 0.0352,-4.6e-4 0.19091,-0.0693 0.34594,-0.15309 0.15503,-0.0837 0.32224,-0.16674 0.37157,-0.18449 0.0493,-0.0177 0.0897,-0.0516 0.0897,-0.0752 0,-0.0236 0.0799,-0.0579 0.17755,-0.0763 0.0977,-0.0183 0.20426,-0.0655 0.2369,-0.10482 0.0326,-0.0393 0.11136,-0.0715 0.17493,-0.0715 0.0636,0 0.14428,-0.0346 0.17937,-0.0769 0.0354,-0.0427 0.14714,-0.0769 0.25113,-0.0769 0.10303,0 0.23889,-0.0361 0.30192,-0.0803 0.17018,-0.11919 1.84847,-0.12028 2.01833,-0.001 0.064,0.0449 0.16899,0.0816 0.23319,0.0816 0.0642,0 0.11672,0.0218 0.11672,0.0484 0,0.0463 0.19162,0.17101 0.36182,0.23557 0.14084,0.0534 0.42384,0.54662 0.46847,0.81641 0.13352,0.80705 -0.13934,1.48911 -0.95397,2.38461 -0.20852,0.2292 -0.71473,0.6177 -0.95842,0.73553 -0.0391,0.0189 -0.14023,0.078 -0.22479,0.13134 -0.12689,0.08 -1.21613,0.64973 -2.10128,1.09901 -0.11275,0.0572 -0.21653,0.11908 -0.23062,0.13745 -0.0141,0.0184 -0.0891,0.0489 -0.16657,0.0679 -0.0775,0.019 -0.14094,0.0571 -0.14094,0.0848 0,0.0277 -0.0344,0.0503 -0.0764,0.0503 -0.042,0 -0.46289,0.20002 -0.93532,0.44449 -0.47243,0.24447 -1.19337,0.61526 -1.6021,0.82398 -1.28362,0.6555 -1.69021,0.87063 -1.76892,0.93595 -0.0673,0.0558 -0.0748,1.50231 -0.0634,12.19054 l 0.0129,12.12722 2.97254,0.0287 c 1.97522,0.0191 3.04991,0.0484 3.20316,0.0875 0.12684,0.0324 0.34888,0.0598 0.49342,0.061 0.16879,0.001 0.28561,0.0297 0.32659,0.0791 0.0351,0.0423 0.13887,0.0769 0.23063,0.0769 0.0917,0 0.19553,0.0346 0.23062,0.0769 0.0351,0.0423 0.11581,0.0769 0.17938,0.0769 0.0636,0 0.14429,0.0346 0.17938,0.0769 0.0351,0.0423 0.10463,0.0769 0.15454,0.0769 0.0499,0 0.10402,0.0346 0.12024,0.0769 0.0162,0.0423 0.0617,0.0769 0.10104,0.0769 0.0393,0 0.14962,0.0688 0.24505,0.15293 0.0954,0.0841 0.18904,0.1533 0.20801,0.15375 0.019,4.6e-4 0.14583,0.16803 0.28188,0.37239 0.24371,0.36606 0.24763,0.3784 0.26462,0.83282 0.0156,0.41767 0.004,0.48721 -0.12085,0.73596 -0.0759,0.15109 -0.22207,0.36064 -0.32474,0.46568 -0.20483,0.20957 -0.69346,0.56651 -0.77551,0.56651 -0.0285,0 -0.0518,0.0231 -0.0518,0.0512 0,0.0282 -0.0273,0.0512 -0.0607,0.0512 -0.0334,0 -0.15446,0.0437 -0.26907,0.0972 -0.1146,0.0535 -0.26602,0.10876 -0.33649,0.12293 -0.0705,0.0142 -0.19732,0.0495 -0.28188,0.0786 -0.48595,0.16702 -0.88514,0.18419 -4.5613,0.19605 -3.07957,0.01 -3.7282,-2.1e-4 -3.92067,-0.0612 z m 32.82599,6.8e-4 c -0.14094,-0.0392 -0.3485,-0.0723 -0.46125,-0.0737 -0.11275,-10e-4 -0.27106,-0.0371 -0.3518,-0.0791 -0.0807,-0.0421 -0.18452,-0.0773 -0.23063,-0.0783 -0.0461,-6.8e-4 -0.17608,-0.0463 -0.28883,-0.10077 -0.11275,-0.0544 -0.23383,-0.0998 -0.26907,-0.10076 -0.0352,-6.9e-4 -0.0641,-0.0248 -0.0641,-0.053 0,-0.0282 -0.0313,-0.0512 -0.0695,-0.0512 -0.17047,0 -1.00675,-0.75373 -1.00675,-0.90738 0,-0.0383 -0.0346,-0.0829 -0.0769,-0.0991 -0.0423,-0.0162 -0.077,-0.0905 -0.0772,-0.16496 -1.6e-4,-0.0745 -0.0348,-0.20152 -0.0769,-0.28225 -0.0966,-0.18522 -0.0957,-0.43856 0.002,-0.56769 0.0414,-0.0547 0.0752,-0.15518 0.0752,-0.22326 0,-0.0681 0.073,-0.21934 0.16218,-0.33615 0.20304,-0.26591 0.66223,-0.69408 0.74752,-0.69703 0.0352,-10e-4 0.0641,-0.0249 0.0641,-0.0525 0,-0.0277 0.0567,-0.0645 0.12602,-0.0819 0.0693,-0.0174 0.15286,-0.064 0.18565,-0.10347 0.0328,-0.0395 0.11164,-0.0719 0.1752,-0.0719 0.0636,0 0.14429,-0.0346 0.17938,-0.0769 0.0351,-0.0423 0.13098,-0.0769 0.21308,-0.0769 0.0821,0 0.20036,-0.0319 0.26279,-0.0708 0.0624,-0.039 0.30945,-0.0848 0.54893,-0.10187 0.23948,-0.0171 0.4432,-0.0544 0.45272,-0.083 0.0114,-0.0342 0.97496,-0.0519 2.82201,-0.0519 2.16554,0 2.82471,-0.0147 2.89248,-0.0642 0.0821,-0.06 0.0869,-0.43074 0.0739,-5.72726 l -0.0139,-5.66307 -0.13401,-0.14094 c -0.0737,-0.0775 -0.16889,-0.14094 -0.21154,-0.14094 -0.0426,0 -0.10624,-0.0346 -0.14133,-0.0769 -0.0351,-0.0423 -0.10428,-0.0769 -0.15376,-0.0769 -0.0495,0 -0.11866,-0.0346 -0.15375,-0.0769 -0.0351,-0.0423 -0.10249,-0.0769 -0.14977,-0.0769 -0.0473,0 -0.10916,-0.0232 -0.13749,-0.0515 -0.0815,-0.0815 -1.14693,-0.61476 -1.22823,-0.61476 -0.0403,0 -0.0733,-0.0226 -0.0733,-0.0503 0,-0.0277 -0.0632,-0.0661 -0.14043,-0.0855 -0.0772,-0.0193 -0.17113,-0.0659 -0.20866,-0.10347 -0.0375,-0.0375 -0.11024,-0.0682 -0.16159,-0.0682 -0.0513,0 -0.10663,-0.0346 -0.12286,-0.0769 -0.0162,-0.0423 -0.0879,-0.0769 -0.15923,-0.0769 -0.0713,0 -0.12974,-0.0194 -0.12974,-0.0431 0,-0.0237 -0.49646,-0.29209 -1.10324,-0.59647 -0.60679,-0.30438 -1.11553,-0.57328 -1.13054,-0.59757 -0.015,-0.0243 -0.0622,-0.0441 -0.1048,-0.0441 -0.0426,0 -0.11211,-0.0346 -0.15439,-0.0769 -0.0423,-0.0423 -0.11853,-0.0769 -0.16944,-0.0769 -0.0509,0 -0.12128,-0.0346 -0.15637,-0.0769 -0.0351,-0.0423 -0.10428,-0.0769 -0.15375,-0.0769 -0.0495,0 -0.11866,-0.0346 -0.15375,-0.0769 -0.0351,-0.0423 -0.10428,-0.0769 -0.15375,-0.0769 -0.0495,0 -0.11866,-0.0346 -0.15375,-0.0769 -0.0351,-0.0423 -0.0995,-0.0769 -0.14318,-0.0769 -0.0437,0 -0.11579,-0.0323 -0.16029,-0.0717 -0.0725,-0.0643 -0.47705,-0.30316 -0.74717,-0.44118 -0.0564,-0.0288 -0.17169,-0.0978 -0.25625,-0.15336 -0.0846,-0.0555 -0.20565,-0.12381 -0.26907,-0.15172 -0.0634,-0.0279 -0.11531,-0.0744 -0.11531,-0.10326 0,-0.0289 -0.0346,-0.0525 -0.0769,-0.0525 -0.0423,0 -0.0769,-0.0346 -0.0769,-0.0769 0,-0.0423 -0.0346,-0.0769 -0.0769,-0.0769 -0.0423,0 -0.0769,-0.0295 -0.0769,-0.0655 0,-0.036 -0.0403,-0.10358 -0.0897,-0.15015 -0.25583,-0.24148 -0.61744,-0.95364 -0.72326,-1.42438 -0.0285,-0.12685 -0.0757,-0.32288 -0.10491,-0.43563 -0.058,-0.22411 -0.0832,-21.3688 -0.0256,-21.51883 0.0176,-0.0458 0.0526,-0.0833 0.0777,-0.0833 0.0252,0 0.0458,-0.0424 0.0458,-0.0942 0,-0.084 0.28302,-0.41132 0.47256,-0.54648 0.17717,-0.12633 0.5045,-0.28187 0.59317,-0.28187 0.0535,0 0.17434,-0.0384 0.26851,-0.0854 0.24604,-0.12274 1.317,-0.12274 1.50433,0 0.0717,0.047 0.18306,0.0856 0.24748,0.0857 0.0644,1.7e-4 0.18317,0.0347 0.26391,0.0769 0.0807,0.0421 0.18002,0.0766 0.22063,0.0766 0.0848,0 0.4232,0.14398 0.85053,0.36187 0.16249,0.0829 0.31981,0.15063 0.3496,0.15063 0.0298,0 0.0887,0.0346 0.13104,0.0769 0.0423,0.0423 0.11888,0.0769 0.17023,0.0769 0.0513,0 0.10663,0.0346 0.12286,0.0769 0.0162,0.0423 0.0854,0.0769 0.15375,0.0769 0.0683,0 0.13752,0.0346 0.15375,0.0769 0.0162,0.0423 0.075,0.0769 0.13058,0.0769 0.0556,0 0.11346,0.02 0.12859,0.0445 0.0284,0.0459 1.16933,0.62177 1.23195,0.62177 0.0194,0 0.0698,0.0346 0.11206,0.0769 0.0423,0.0423 0.12136,0.0769 0.17572,0.0769 0.0544,0 0.0988,0.0215 0.0988,0.0478 0,0.0263 0.0508,0.0639 0.11292,0.0836 0.0621,0.0197 0.14448,0.0674 0.18304,0.10596 0.0386,0.0386 0.10471,0.0701 0.14699,0.0701 0.0423,0 0.11147,0.0346 0.15375,0.0769 0.0423,0.0423 0.11853,0.0769 0.16944,0.0769 0.0509,0 0.12128,0.0346 0.15637,0.0769 0.0351,0.0423 0.10428,0.0769 0.15375,0.0769 0.0495,0 0.11866,0.0346 0.15375,0.0769 0.0351,0.0423 0.10574,0.0769 0.157,0.0769 0.0513,0 0.1059,0.0206 0.12143,0.0456 0.0155,0.0251 0.23021,0.14391 0.47709,0.26398 0.24688,0.12009 0.46063,0.23609 0.47501,0.25779 0.0144,0.0217 0.0893,0.0553 0.16656,0.0747 0.0772,0.0194 0.14043,0.054 0.14043,0.0769 0,0.0229 0.0676,0.0565 0.15021,0.0746 0.0826,0.0181 0.17769,0.0661 0.21128,0.10657 0.0336,0.0405 0.10154,0.0736 0.15102,0.0736 0.0495,0 0.11866,0.0346 0.15375,0.0769 0.0351,0.0423 0.10428,0.0769 0.15375,0.0769 0.0495,0 0.11866,0.0346 0.15375,0.0769 0.0351,0.0423 0.10428,0.0769 0.15375,0.0769 0.0495,0 0.11866,0.0346 0.15375,0.0769 0.0351,0.0423 0.10428,0.0769 0.15376,0.0769 0.0495,0 0.11678,0.0324 0.14957,0.0718 0.0328,0.0395 0.11634,0.0861 0.18566,0.10348 0.0693,0.0174 0.12602,0.0542 0.12602,0.0819 0,0.0277 0.0445,0.0503 0.0988,0.0503 0.0544,0 0.13344,0.0346 0.17572,0.0769 0.0423,0.0423 0.0963,0.0769 0.12014,0.0769 0.0238,0 0.16583,0.0807 0.31564,0.17937 0.1498,0.0987 0.29342,0.17938 0.31915,0.17938 0.0257,0 0.0468,0.0238 0.0468,0.0529 0,0.0291 0.0404,0.0677 0.0897,0.0859 0.11808,0.0435 0.88407,0.806 0.88407,0.88006 0,0.0316 0.0218,0.0575 0.0485,0.0575 0.0508,0 0.10399,0.0872 0.30237,0.49566 0.0661,0.13611 0.15259,0.31277 0.19219,0.39257 0.10886,0.21939 0.0973,1.05416 -0.0177,1.27296 -0.0802,0.15262 -0.44714,0.54817 -0.63385,0.68322 -0.19678,0.14235 -0.66803,0.27468 -1.06269,0.29841 -0.48749,0.0293 -1.24156,-0.03 -1.52973,-0.12038 -0.45498,-0.14266 -0.99826,-0.35547 -1.19409,-0.46774 -0.0423,-0.0242 -0.11147,-0.0571 -0.15375,-0.0731 -0.0423,-0.0159 -0.11147,-0.0505 -0.15376,-0.0769 -0.0423,-0.0263 -0.11147,-0.0609 -0.15375,-0.0769 -0.0423,-0.0159 -0.11147,-0.0505 -0.15375,-0.0769 -0.0423,-0.0264 -0.11147,-0.0609 -0.15375,-0.0769 -0.0423,-0.0159 -0.11147,-0.0507 -0.15375,-0.0773 -0.0423,-0.0266 -0.1403,-0.0733 -0.21782,-0.10382 -0.0775,-0.0305 -0.14094,-0.0763 -0.14094,-0.10176 0,-0.0254 -0.0259,-0.0463 -0.0577,-0.0463 -0.0317,0 -0.38343,-0.16305 -0.78157,-0.36234 -0.69058,-0.34564 -0.78614,-0.39436 -0.99296,-0.50616 -0.0493,-0.0266 -0.45869,-0.23124 -0.9097,-0.45461 -1.61447,-0.79963 -1.61835,-0.80108 -1.6986,-0.63723 -0.0241,0.0493 -0.0503,3.52012 -0.0581,7.71286 -0.0131,6.99865 -0.007,7.6337 0.07,7.75165 0.0463,0.0707 0.11612,0.12848 0.15516,0.12848 0.039,0 0.071,0.0208 0.071,0.0462 0,0.0254 0.0634,0.0712 0.14094,0.10176 0.0775,0.0305 0.18707,0.0826 0.24344,0.1156 0.19152,0.11224 0.25615,0.14702 0.32032,0.17236 0.15184,0.0599 0.21804,0.093 0.70469,0.3512 0.28188,0.14959 0.73758,0.39115 1.01266,0.5368 0.27509,0.14565 0.53454,0.26481 0.57657,0.26481 0.042,0 0.0764,0.0226 0.0764,0.0503 0,0.0276 0.0632,0.0661 0.14043,0.0855 0.0772,0.0194 0.17113,0.0659 0.20866,0.10347 0.0375,0.0375 0.10989,0.0682 0.1608,0.0682 0.0509,0 0.12127,0.0346 0.15636,0.0769 0.0351,0.0423 0.10575,0.0769 0.15701,0.0769 0.0513,0 0.10833,0.0245 0.12683,0.0544 0.0185,0.0299 0.0833,0.076 0.14396,0.10238 0.0607,0.0264 0.1507,0.0711 0.20002,0.0993 0.33701,0.19303 0.78973,0.41012 0.85528,0.41012 0.0299,0 0.0544,0.0226 0.0544,0.0503 0,0.0277 0.0632,0.0662 0.14043,0.0855 0.0772,0.0194 0.17114,0.066 0.20867,0.10348 0.0375,0.0375 0.10282,0.0682 0.1451,0.0682 0.0423,0 0.11147,0.0346 0.15376,0.0769 0.0423,0.0423 0.11888,0.0769 0.17023,0.0769 0.0513,0 0.10663,0.0346 0.12286,0.0769 0.0162,0.0423 0.0854,0.0769 0.15375,0.0769 0.0683,0 0.13752,0.0346 0.15375,0.0769 0.0162,0.0423 0.0854,0.0769 0.15375,0.0769 0.0683,0 0.13753,0.0346 0.15375,0.0769 0.0162,0.0423 0.0614,0.0769 0.1003,0.0769 0.0389,0 0.1663,0.0692 0.28304,0.15374 0.11674,0.0846 0.23198,0.15376 0.2561,0.15376 0.0241,0 0.097,0.0461 0.16204,0.1025 0.065,0.0564 0.1479,0.1025 0.18422,0.1025 0.13253,0 0.86801,0.78908 1.01612,1.09017 0.08,0.16268 0.16557,0.30819 0.19009,0.32334 0.0245,0.0151 0.0453,0.0781 0.0462,0.13985 8.9e-4,0.0618 0.0355,0.15705 0.0769,0.21177 0.0414,0.0547 0.0752,0.16145 0.0752,0.23718 0,0.0757 0.0404,0.227 0.0897,0.33615 0.084,0.18595 0.0897,0.64866 0.0897,7.3479 0,6.69943 -0.006,7.18172 -0.0935,7.66196 -0.0515,0.28188 -0.1264,0.5778 -0.16657,0.6576 -0.0402,0.0798 -0.073,0.16804 -0.073,0.19608 0,0.0616 -0.38111,0.55323 -0.65075,0.83949 -0.35967,0.38187 -0.71599,0.56385 -1.17631,0.6008 -0.19126,0.0153 -0.35619,0.0532 -0.3665,0.0842 -0.0306,0.0919 -7.69649,0.071 -8.03093,-0.0218 z m -19.01698,-0.15092 c -0.0547,-0.0414 -0.13214,-0.076 -0.17206,-0.0769 -0.0786,-0.002 -0.12845,-0.0407 -0.43993,-0.34409 -0.28706,-0.27957 -0.48688,-0.52774 -0.48688,-0.60467 0,-0.036 -0.0346,-0.094 -0.0769,-0.12913 -0.0423,-0.0351 -0.0769,-0.10428 -0.0769,-0.15375 0,-0.0495 -0.0346,-0.11866 -0.0769,-0.15375 -0.0423,-0.0351 -0.077,-0.11287 -0.0772,-0.17284 -1.5e-4,-0.06 -0.0348,-0.1751 -0.0769,-0.25584 -0.0421,-0.0807 -0.0767,-0.21912 -0.0769,-0.3075 -1.6e-4,-0.0884 -0.0348,-0.22677 -0.0769,-0.30751 -0.0675,-0.12937 -0.0766,-2.19875 -0.0766,-17.43215 0,-15.2334 0.009,-17.30278 0.0766,-17.43215 0.0421,-0.0807 0.0774,-0.22752 0.0785,-0.32618 0.001,-0.0986 0.0358,-0.22414 0.0772,-0.27886 0.0414,-0.0547 0.0753,-0.16144 0.0753,-0.23716 0,-0.0757 0.0346,-0.16639 0.0769,-0.20148 0.0423,-0.0351 0.0769,-0.10428 0.0769,-0.15376 0,-0.0495 0.0346,-0.11866 0.0769,-0.15375 0.0423,-0.0351 0.0769,-0.0858 0.0769,-0.11267 0,-0.12447 0.60308,-0.80984 0.71261,-0.80984 0.0249,0 0.0585,-0.0346 0.0747,-0.0769 0.0162,-0.0423 0.0747,-0.0769 0.12995,-0.0769 0.0553,0 0.13504,-0.0346 0.17732,-0.0769 0.0423,-0.0423 0.13454,-0.0769 0.20501,-0.0769 0.0705,0 0.16272,-0.0346 0.205,-0.0769 0.0423,-0.0423 0.11384,-0.0769 0.15902,-0.0769 0.0452,0 0.0954,-0.0346 0.11165,-0.0769 0.0162,-0.0423 0.0718,-0.0769 0.12349,-0.0769 0.0517,0 0.10735,-0.0216 0.12367,-0.048 0.0345,-0.0559 0.55905,-0.31073 0.63946,-0.31073 0.0299,0 0.0544,-0.0213 0.0544,-0.0472 0,-0.026 0.0692,-0.0624 0.15375,-0.081 0.0846,-0.0186 0.15375,-0.0546 0.15375,-0.08 0,-0.0254 0.0632,-0.0621 0.14044,-0.0814 0.0772,-0.0194 0.17113,-0.0659 0.20866,-0.10347 0.0375,-0.0375 0.11343,-0.0682 0.16868,-0.0682 0.0553,0 0.11372,-0.0346 0.12995,-0.0769 0.0162,-0.0423 0.0703,-0.0769 0.12024,-0.0769 0.0499,0 0.11945,-0.0346 0.15454,-0.0769 0.0351,-0.0423 0.10428,-0.0769 0.15376,-0.0769 0.0495,0 0.11866,-0.0346 0.15375,-0.0769 0.0351,-0.0423 0.10428,-0.0769 0.15375,-0.0769 0.0495,0 0.11866,-0.0346 0.15375,-0.0769 0.0351,-0.0423 0.10546,-0.0769 0.15637,-0.0769 0.0509,0 0.12602,-0.0334 0.16691,-0.0744 0.0409,-0.0409 0.13479,-0.0895 0.20866,-0.10805 0.0739,-0.0185 0.13432,-0.0525 0.13432,-0.0753 0,-0.0229 0.0676,-0.0565 0.15021,-0.0746 0.0826,-0.0181 0.17769,-0.0661 0.21128,-0.10658 0.0336,-0.0405 0.1019,-0.0736 0.15181,-0.0736 0.0499,0 0.10401,-0.0346 0.12024,-0.0769 0.0162,-0.0423 0.0735,-0.0769 0.12733,-0.0769 0.0538,0 0.12655,-0.0346 0.16164,-0.0769 0.0351,-0.0423 0.10428,-0.0769 0.15375,-0.0769 0.0495,0 0.11866,-0.0346 0.15375,-0.0769 0.0351,-0.0423 0.10546,-0.0769 0.15637,-0.0769 0.0509,0 0.12327,-0.0307 0.1608,-0.0682 0.0375,-0.0375 0.13142,-0.0841 0.20866,-0.10347 0.0772,-0.0194 0.14043,-0.0578 0.14043,-0.0855 0,-0.0277 0.0356,-0.0503 0.0791,-0.0503 0.0435,0 0.23376,-0.0848 0.42282,-0.18844 0.18906,-0.10364 0.70122,-0.37006 1.13813,-0.59203 0.43691,-0.22198 0.81629,-0.42547 0.84307,-0.45219 0.0268,-0.0267 0.0874,-0.0486 0.13467,-0.0486 0.0473,0 0.11468,-0.0346 0.14977,-0.0769 0.0351,-0.0423 0.10428,-0.0769 0.15375,-0.0769 0.0495,0 0.11866,-0.0346 0.15376,-0.0769 0.0351,-0.0423 0.1135,-0.0769 0.17424,-0.0769 0.0607,0 0.15594,-0.0313 0.21154,-0.0696 0.0556,-0.0383 0.18758,-0.0855 0.29329,-0.10483 0.1057,-0.0193 0.19219,-0.0572 0.19219,-0.0841 0,-0.0269 0.0757,-0.0489 0.16834,-0.0489 0.16468,0 0.66082,-0.1485 0.9002,-0.26944 0.17923,-0.0905 0.82229,-0.0711 1.0071,0.0305 0.0846,0.0465 0.18066,0.0847 0.21355,0.0848 0.0329,1.8e-4 0.0675,0.0177 0.0769,0.0388 0.0247,0.0555 0.33733,0.26907 0.39391,0.26907 0.0263,0 0.0611,0.0346 0.0773,0.0769 0.0162,0.0423 0.0648,0.0769 0.10799,0.0769 0.0432,0 0.0785,0.0346 0.0785,0.0769 0,0.0423 0.0346,0.0769 0.0769,0.0769 0.0423,0 0.0769,0.0317 0.0769,0.0706 0,0.0388 0.0346,0.0993 0.0769,0.13441 0.0423,0.0351 0.0769,0.10427 0.0769,0.15374 0,0.0495 0.0346,0.11867 0.0769,0.15376 0.0423,0.0351 0.0769,0.13244 0.0769,0.21634 0,0.0839 0.0314,0.22522 0.0699,0.31404 0.0923,0.21324 0.18263,0.63586 0.23726,1.10964 0.0559,0.48483 0.061,39.01129 0.005,39.46294 -0.0467,0.37792 -0.14122,0.76965 -0.24308,1.00714 -0.0381,0.0888 -0.0693,0.18262 -0.0693,0.20843 0,0.0867 -0.29454,0.62389 -0.46363,0.84552 -0.23801,0.31198 -0.48213,0.52177 -0.78609,0.67556 -0.34053,0.17229 -0.97434,0.19038 -1.2763,0.0365 -0.21561,-0.10992 -0.70276,-0.4709 -0.70276,-0.52074 0,-0.0181 -0.0404,-0.0814 -0.0897,-0.14077 -0.2075,-0.2496 -0.26907,-0.3423 -0.26907,-0.4051 0,-0.0366 -0.0231,-0.0665 -0.0513,-0.0665 -0.0282,0 -0.0513,-0.0292 -0.0513,-0.0648 0,-0.0356 -0.0461,-0.15089 -0.1025,-0.25607 -0.0564,-0.10518 -0.10323,-0.23169 -0.10413,-0.28112 -8.8e-4,-0.0495 -0.0355,-0.13464 -0.0769,-0.18936 -0.0414,-0.0547 -0.076,-0.19309 -0.0769,-0.3075 -8.9e-4,-0.11441 -0.0355,-0.25279 -0.0769,-0.30751 -0.0654,-0.0864 -0.0756,-1.14147 -0.0782,-8.04633 -0.002,-4.37078 -0.0193,-8.03887 -0.0392,-8.15131 -0.0251,-0.14139 -0.0658,-0.21014 -0.1319,-0.22287 -0.11161,-0.0215 -0.0927,-0.0296 -1.05594,0.44893 -0.69347,0.34446 -0.82613,0.4124 -1.02501,0.52493 -0.0423,0.0239 -0.11147,0.0565 -0.15375,0.0725 -0.0423,0.0159 -0.11147,0.0505 -0.15375,0.0769 -0.0423,0.0264 -0.11147,0.0609 -0.15376,0.0769 -0.0423,0.0159 -0.11147,0.0505 -0.15375,0.0769 -0.0423,0.0264 -0.11147,0.0609 -0.15375,0.0769 -0.0423,0.0159 -0.11147,0.0505 -0.15375,0.0769 -0.0423,0.0264 -0.11147,0.0609 -0.15375,0.0769 -0.0423,0.0159 -0.11147,0.0489 -0.15375,0.0733 -0.0423,0.0243 -0.28444,0.15069 -0.53814,0.28078 -0.47878,0.24553 -0.57952,0.29869 -0.73032,0.38541 -0.0493,0.0283 -0.12428,0.0657 -0.16656,0.083 -0.114,0.0467 -0.47546,0.22249 -0.56376,0.2742 -0.0423,0.0248 -0.11147,0.0584 -0.15375,0.0749 -0.0423,0.0164 -0.14606,0.0757 -0.23063,0.13167 -0.0846,0.056 -0.21499,0.12641 -0.28985,0.15651 -0.0748,0.0301 -0.1604,0.11666 -0.1901,0.19234 -0.0365,0.093 -0.0599,2.25645 -0.0721,6.67207 -0.0166,5.99871 -0.0252,6.55007 -0.10459,6.72499 -0.0476,0.1048 -0.0865,0.25607 -0.0865,0.33615 0,0.0801 -0.0339,0.19037 -0.0752,0.24509 -0.0414,0.0547 -0.076,0.14082 -0.0769,0.19136 -0.003,0.18844 -0.48536,0.97927 -0.77124,1.26535 -0.0977,0.0978 -0.33056,0.2516 -0.56093,0.37056 -0.23094,0.11925 -1.00759,0.13022 -1.15813,0.0163 z m 3.22064,-21.31404 c 0.10661,-0.0371 0.22077,-0.0944 0.25369,-0.12735 0.0329,-0.0329 0.11007,-0.0599 0.17145,-0.0599 0.0614,0 0.14031,-0.0346 0.17541,-0.0769 0.0351,-0.0423 0.10427,-0.0769 0.15375,-0.0769 0.0495,0 0.11866,-0.0346 0.15375,-0.0769 0.0351,-0.0423 0.10428,-0.0769 0.15375,-0.0769 0.0495,0 0.11866,-0.0346 0.15375,-0.0769 0.0351,-0.0423 0.10574,-0.0769 0.157,-0.0769 0.0513,0 0.10476,-0.0187 0.11888,-0.0416 0.0217,-0.0352 1.64719,-0.85965 1.87665,-0.95191 0.0996,-0.0401 0.25901,-0.1427 0.34743,-0.22375 0.0384,-0.0352 0.1119,-0.064 0.16325,-0.064 0.0514,0 0.10663,-0.0346 0.12286,-0.0769 0.0162,-0.0423 0.0854,-0.0769 0.15375,-0.0769 0.0683,0 0.13753,-0.0346 0.15375,-0.0769 0.0162,-0.0423 0.0886,-0.0769 0.16084,-0.0769 0.0722,0 0.14462,-0.0346 0.16085,-0.0769 0.0162,-0.0423 0.0819,-0.0769 0.14587,-0.0769 0.064,0 0.14507,-0.0346 0.18016,-0.0769 0.0351,-0.0423 0.10575,-0.0769 0.15701,-0.0769 0.0513,0 0.1056,-0.02 0.12075,-0.0445 0.0152,-0.0245 0.16066,-0.11101 0.32335,-0.19219 0.16268,-0.0812 0.33537,-0.19373 0.38376,-0.2501 0.0823,-0.0958 0.0879,-0.56792 0.0859,-7.25196 -10e-4,-3.9322 -0.0177,-7.25293 -0.0367,-7.37941 -0.0401,-0.26636 -0.13453,-0.31203 -0.38648,-0.18696 -0.0884,0.0439 -0.4088,0.20175 -0.71209,0.35084 -0.75457,0.37095 -0.82856,0.4098 -0.85797,0.45048 -0.0141,0.0195 -0.089,0.051 -0.16656,0.0699 -0.0775,0.019 -0.14094,0.0571 -0.14094,0.0848 0,0.0277 -0.0299,0.0503 -0.0666,0.0503 -0.0366,0 -0.39985,0.17098 -0.8072,0.37995 -0.40734,0.20897 -1.14422,0.58283 -1.63751,0.8308 -1.07902,0.54241 -1.47402,0.77188 -1.53958,0.89438 -0.0308,0.0575 -0.0492,2.84784 -0.0492,7.44974 0,6.97358 0.005,7.35779 0.0897,7.35706 0.0493,-4.2e-4 0.17691,-0.0311 0.28352,-0.0683 z m 29.42598,21.31404 c -0.0547,-0.0414 -0.14057,-0.076 -0.19078,-0.0769 -0.0502,-6.8e-4 -0.10424,-0.0353 -0.12005,-0.0765 -0.0158,-0.0412 -0.0731,-0.089 -0.1273,-0.1062 -0.10377,-0.033 -0.66074,-0.68978 -0.66074,-0.77922 0,-0.0287 -0.0346,-0.0808 -0.0769,-0.11592 -0.0423,-0.0351 -0.0769,-0.10545 -0.0769,-0.15637 0,-0.0509 -0.0346,-0.12715 -0.0769,-0.16944 -0.0423,-0.0423 -0.0769,-0.13177 -0.0769,-0.19887 0,-0.0671 -0.0339,-0.16675 -0.0752,-0.22147 -0.0414,-0.0547 -0.0761,-0.1802 -0.0772,-0.27886 -10e-4,-0.0987 -0.0364,-0.24544 -0.0785,-0.32618 -0.0675,-0.12933 -0.0764,-2.07427 -0.0749,-16.34893 10e-4,-14.16485 0.0111,-16.21465 0.0769,-16.30163 0.0414,-0.0547 0.0752,-0.19444 0.0752,-0.31051 0,-0.11607 0.0339,-0.25581 0.0752,-0.31053 0.0414,-0.0547 0.076,-0.17161 0.0769,-0.25977 8.8e-4,-0.0882 0.0362,-0.189 0.0785,-0.22409 0.0423,-0.0351 0.0769,-0.11049 0.0769,-0.16756 0,-0.18656 0.50587,-0.74752 0.89968,-0.99766 0.3516,-0.22332 0.51035,-0.26977 0.91653,-0.26817 0.28182,0.001 0.44482,0.0255 0.51267,0.0769 0.0547,0.0413 0.17444,0.0752 0.26604,0.0752 0.0916,0 0.17915,0.0204 0.19454,0.0452 0.0154,0.0249 0.15586,0.0612 0.31217,0.0808 0.15631,0.0195 0.34688,0.0682 0.42349,0.10817 0.0766,0.04 0.18836,0.0728 0.24834,0.073 0.06,1.6e-4 0.13774,0.0349 0.17283,0.0772 0.0351,0.0423 0.11581,0.0769 0.17938,0.0769 0.0636,0 0.14429,0.0346 0.17938,0.0769 0.0351,0.0423 0.10428,0.0769 0.15375,0.0769 0.0495,0 0.11866,0.0346 0.15375,0.0769 0.0351,0.0423 0.10428,0.0769 0.15375,0.0769 0.0495,0 0.11866,0.0346 0.15375,0.0769 0.0351,0.0423 0.10428,0.0769 0.15376,0.0769 0.0495,0 0.11866,0.0346 0.15375,0.0769 0.0351,0.0423 0.10428,0.0769 0.15375,0.0769 0.0495,0 0.11678,0.0324 0.14958,0.0719 0.0328,0.0395 0.11634,0.0861 0.18565,0.10347 0.0693,0.0174 0.12603,0.0542 0.12603,0.0819 0,0.0277 0.0288,0.0501 0.0641,0.0498 0.0806,-6.3e-4 1.42404,0.66989 1.51555,0.75644 0.0373,0.0352 0.10938,0.064 0.16029,0.064 0.0509,0 0.12127,0.0346 0.15636,0.0769 0.0351,0.0423 0.10428,0.0769 0.15376,0.0769 0.0495,0 0.11866,0.0346 0.15375,0.0769 0.0351,0.0423 0.10574,0.0769 0.157,0.0769 0.0513,0 0.10538,0.0197 0.12027,0.0438 0.0149,0.0241 0.31678,0.18888 0.67087,0.36621 0.35408,0.17732 0.65597,0.34211 0.67086,0.3662 0.0149,0.0241 0.069,0.0438 0.12027,0.0438 0.0513,0 0.12191,0.0346 0.157,0.0769 0.0351,0.0423 0.10428,0.0769 0.15376,0.0769 0.0495,0 0.11866,0.0346 0.15375,0.0769 0.0351,0.0423 0.11616,0.0769 0.18016,0.0769 0.064,0 0.12965,0.0346 0.14587,0.0769 0.0162,0.0423 0.075,0.0769 0.13059,0.0769 0.0556,0 0.11444,0.0216 0.13076,0.048 0.0334,0.0542 0.55793,0.31074 0.63518,0.31074 0.0276,0 0.0578,0.0179 0.0672,0.0397 0.009,0.0219 0.17852,0.12286 0.37584,0.22447 0.51355,0.26447 0.71378,0.37281 0.74309,0.40207 0.0557,0.0557 0.35639,0.25625 0.38405,0.25625 0.0162,0 0.22076,0.19027 0.45463,0.42282 0.43756,0.4351 0.75013,0.80928 0.75013,0.89799 0,0.0277 0.0346,0.0791 0.0769,0.11421 0.0423,0.0351 0.0769,0.11699 0.0769,0.18199 0,0.065 0.0346,0.15279 0.0769,0.19507 0.0423,0.0423 0.0769,0.1469 0.0769,0.23249 0,0.0856 0.032,0.25445 0.0712,0.37523 0.0392,0.12079 0.0853,0.33259 0.10256,0.47069 0.0172,0.13809 0.0602,0.28578 0.0954,0.32819 0.0507,0.0611 0.0669,2.76217 0.0781,13.00633 0.009,7.86246 -0.005,13.09636 -0.0343,13.35572 -0.0569,0.50194 -0.13849,0.87634 -0.23988,1.10049 -0.0402,0.0888 -0.073,0.1836 -0.073,0.2106 0,0.0803 -0.30894,0.63713 -0.47601,0.85792 -0.22425,0.29633 -0.47301,0.50885 -0.77372,0.661 -0.22276,0.1127 -0.33153,0.13339 -0.70155,0.13339 -0.30569,0 -0.46795,-0.0227 -0.53739,-0.0752 -0.0547,-0.0414 -0.12636,-0.076 -0.15919,-0.0769 -0.10235,-0.003 -0.51216,-0.37528 -0.73468,-0.66778 -0.20573,-0.27043 -0.51154,-0.87348 -0.51414,-1.01389 -6.8e-4,-0.0484 -0.0355,-0.13287 -0.0769,-0.18759 -0.0413,-0.0547 -0.0761,-0.18156 -0.0771,-0.28188 -0.001,-0.10031 -0.0347,-0.24005 -0.0751,-0.31052 -0.0614,-0.10732 -0.0735,-0.66383 -0.0751,-3.42773 l -0.002,-3.29961 -0.18294,-0.17254 c -0.10062,-0.0949 -0.24454,-0.18799 -0.31981,-0.20688 -0.0753,-0.0189 -0.16758,-0.0651 -0.2051,-0.10259 -0.0375,-0.0375 -0.10283,-0.0682 -0.14511,-0.0682 -0.0423,0 -0.11147,-0.0346 -0.15375,-0.0769 -0.0423,-0.0423 -0.12136,-0.0769 -0.17571,-0.0769 -0.0544,0 -0.0988,-0.0208 -0.0988,-0.0463 0,-0.0254 -0.0634,-0.0712 -0.14095,-0.10176 -0.0775,-0.0305 -0.1813,-0.0789 -0.23063,-0.10751 -0.28599,-0.16579 -0.64901,-0.3412 -0.79438,-0.38383 -0.0634,-0.0186 -0.11531,-0.0535 -0.11531,-0.0775 0,-0.0241 -0.0692,-0.0589 -0.15375,-0.0775 -0.0846,-0.0186 -0.15375,-0.0525 -0.15375,-0.0754 0,-0.0229 -0.0604,-0.0568 -0.13432,-0.0753 -0.0739,-0.0185 -0.16777,-0.0672 -0.20866,-0.10806 -0.0409,-0.0409 -0.11883,-0.0743 -0.17319,-0.0743 -0.0544,0 -0.0988,-0.0208 -0.0988,-0.0462 0,-0.0254 -0.0634,-0.0712 -0.14094,-0.10176 -0.0775,-0.0305 -0.1813,-0.0789 -0.23063,-0.10751 -0.23097,-0.1339 -0.27329,-0.15682 -0.33313,-0.18045 -0.0352,-0.0139 -0.0929,-0.0367 -0.12812,-0.0506 -0.0352,-0.0139 -0.10443,-0.0485 -0.15375,-0.0769 -0.0493,-0.0283 -0.13005,-0.0748 -0.17938,-0.10315 -0.0493,-0.0283 -0.12428,-0.065 -0.16657,-0.0815 -0.0423,-0.0164 -0.29264,-0.13345 -0.55635,-0.26003 -0.26371,-0.12657 -0.55443,-0.2423 -0.64603,-0.25717 -0.14285,-0.0232 -0.17107,-0.01 -0.19826,0.0938 -0.0174,0.0664 -0.0326,1.92326 -0.0336,4.12624 -0.002,4.62063 -0.0201,5.41973 -0.12865,5.73935 -0.0424,0.12488 -0.0771,0.27159 -0.0771,0.32602 0,0.19883 -0.42229,1.07749 -0.664,1.38161 -0.29269,0.36826 -0.41639,0.47069 -0.82029,0.67926 -0.23094,0.11925 -1.0076,0.13022 -1.15814,0.0163 z m 9.08842,-21.57786 c 0.008,-3.77717 0.002,-6.9172 -0.0125,-6.97786 -0.0275,-0.11389 -0.41918,-0.3766 -0.56159,-0.3766 -0.0443,0 -0.0806,-0.0226 -0.0806,-0.0503 0,-0.0276 -0.0632,-0.0661 -0.14043,-0.0855 -0.0772,-0.0194 -0.17113,-0.066 -0.20866,-0.10348 -0.0375,-0.0375 -0.11271,-0.0682 -0.16707,-0.0682 -0.0544,0 -0.0988,-0.0226 -0.0988,-0.0503 0,-0.0277 -0.0567,-0.0645 -0.12603,-0.0819 -0.0693,-0.0174 -0.15285,-0.064 -0.18565,-0.10348 -0.0328,-0.0395 -0.10011,-0.0718 -0.14958,-0.0718 -0.0495,0 -0.11866,-0.0346 -0.15375,-0.0769 -0.0351,-0.0423 -0.10428,-0.0769 -0.15376,-0.0769 -0.0495,0 -0.11865,-0.0346 -0.15375,-0.0769 -0.0351,-0.0423 -0.10427,-0.0769 -0.15375,-0.0769 -0.0495,0 -0.11743,-0.0331 -0.15102,-0.0736 -0.0336,-0.0405 -0.12866,-0.0884 -0.21127,-0.10657 -0.0826,-0.0181 -0.15021,-0.0524 -0.15021,-0.0761 0,-0.0237 -0.0692,-0.0583 -0.15376,-0.0769 -0.0846,-0.0186 -0.15375,-0.0525 -0.15375,-0.0754 0,-0.0229 -0.0632,-0.0575 -0.14042,-0.0769 -0.0772,-0.0194 -0.15219,-0.053 -0.16657,-0.0747 -0.0144,-0.0217 -0.22217,-0.13651 -0.46177,-0.25512 -0.23959,-0.11862 -0.47022,-0.23538 -0.5125,-0.25948 -0.18244,-0.10396 -1.06071,-0.51409 -1.10091,-0.51409 -0.0243,0 -0.0806,-0.0305 -0.12507,-0.0676 -0.0445,-0.0372 -0.16878,-0.0931 -0.27618,-0.12428 -0.1794,-0.052 -0.19888,-0.0476 -0.2398,0.0548 -0.0245,0.0613 -0.0463,3.18329 -0.0485,6.93773 l -0.004,6.82625 0.16715,0.12749 c 0.0919,0.0701 0.22471,0.15209 0.29505,0.18215 0.0704,0.03 0.1625,0.0761 0.20478,0.10231 0.0423,0.0262 0.11147,0.0607 0.15375,0.0767 0.073,0.0275 0.14178,0.0644 0.34594,0.18526 0.0493,0.0292 0.15311,0.0804 0.23063,0.11373 0.0775,0.0333 0.14094,0.0768 0.14094,0.0966 0,0.0198 0.0692,0.0512 0.15375,0.0697 0.0846,0.0186 0.15375,0.0531 0.15375,0.0769 0,0.0237 0.0692,0.0583 0.15375,0.0769 0.0846,0.0186 0.15375,0.0531 0.15375,0.0769 0,0.0237 0.0676,0.058 0.15021,0.0761 0.0826,0.0181 0.1777,0.0661 0.21128,0.10658 0.0336,0.0405 0.10155,0.0736 0.15102,0.0736 0.0495,0 0.11866,0.0346 0.15375,0.0769 0.0351,0.0423 0.10574,0.0769 0.157,0.0769 0.0512,0 0.10833,0.0245 0.12683,0.0544 0.0185,0.0299 0.0833,0.076 0.14397,0.10238 0.0607,0.0264 0.15069,0.0711 0.20002,0.0993 0.0493,0.0283 0.13004,0.0746 0.17937,0.10295 0.0493,0.0283 0.11853,0.063 0.15376,0.0769 0.0352,0.0139 0.0929,0.0367 0.12812,0.0506 0.0352,0.0139 0.0987,0.0469 0.14094,0.0732 0.0423,0.0264 0.11148,0.0609 0.15375,0.0769 0.0423,0.0159 0.11724,0.0522 0.16657,0.0806 0.23358,0.13432 0.60665,0.32299 0.8072,0.40822 0.0705,0.03 0.22037,0.11086 0.33312,0.17981 0.11276,0.0689 0.24537,0.12635 0.2947,0.12757 0.0493,0.001 0.0897,0.0268 0.0897,0.0568 0,0.0306 0.073,0.0475 0.16657,0.0384 l 0.16656,-0.0161 z m 3.73166,-12.77988 c -0.0168,-0.0272 -0.13165,-0.0984 -0.25514,-0.15822 -0.12349,-0.0597 -0.27679,-0.15402 -0.34068,-0.20943 -0.0639,-0.0554 -0.14723,-0.10075 -0.1852,-0.10075 -0.0379,0 -0.069,-0.0208 -0.069,-0.0463 0,-0.0254 -0.0634,-0.0712 -0.14094,-0.10175 -0.15618,-0.0615 -0.30526,-0.15181 -0.4115,-0.2492 -0.0384,-0.0352 -0.0915,-0.064 -0.11793,-0.064 -0.0264,0 -0.14353,-0.0692 -0.26027,-0.15375 -0.11674,-0.0846 -0.24339,-0.15375 -0.28144,-0.15375 -0.0381,0 -0.0692,-0.0236 -0.0692,-0.0525 0,-0.0289 -0.0543,-0.0732 -0.12072,-0.0984 -0.14913,-0.0567 -0.6494,-0.35998 -0.74139,-0.44945 -0.0373,-0.0362 -0.10068,-0.0659 -0.14094,-0.0659 -0.0403,0 -0.0732,-0.0179 -0.0732,-0.0396 0,-0.0218 -0.0848,-0.0852 -0.18842,-0.14093 -0.10363,-0.0557 -0.21894,-0.13182 -0.25625,-0.16908 -0.0553,-0.0552 -0.0679,-0.95615 -0.0679,-4.88161 v -4.8139 h 1.94773 1.94774 l -0.013,5.97924 c -0.0127,5.86392 -0.0218,6.19669 -0.16236,5.96929 z"
         id="path4213"
         inkscape:connector-curvature="0" />
      <text
         id="text3780"
         y="248.23166"
         x="95.317261"
         style="font-style:normal;font-weight:normal;font-size:7.20982647px;line-height:1.25;font-family:sans-serif;letter-spacing:0px;word-spacing:0px;fill:#e6e6e6;fill-opacity:1;stroke:none;stroke-width:0.18024567"
         xml:space="preserve"><tspan
           style="font-style:normal;font-variant:normal;font-weight:normal;font-stretch:normal;font-size:19.22620773px;font-family:'Nimbus Sans';-inkscape-font-specification:'Nimbus Sans';fill:#e6e6e6;stroke-width:0.18024567"
           y="248.23166"
           x="95.317261"
           id="tspan3778"
           sodipodi:role="line">Computer Architecture </tspan><tspan
           id="tspan3782"
           style="font-style:normal;font-variant:normal;font-weight:normal;font-stretch:normal;font-size:19.22620773px;font-family:'Nimbus Sans';-inkscape-font-specification:'Nimbus Sans';fill:#e6e6e6;stroke-width:0.18024567"
           y="272.2644"
           x="95.317261"
           sodipodi:role="line">Student Association</tspan></text>
    </g>
  </g>
</svg>
